<svg xmlns="http://www.w3.org/2000/svg" data-name="Layer 1" viewBox="0 0 1300 1000"><path fill="#e8f1f6" d="M826.18 361h-105c-26.93 0-40.81-16.79 19.64-16.79-20-19.58 7.09-35.65 22.58-22.38-14.73-41.65 83.69-41 39.07 6.22 24-10 36.44 11.89 12.45 18.05 31.88-18.65 53.64 14.9 11.24 14.9Z"/><path fill="#e8f1f6" d="M472.76 503.15h-105c-26.92 0-40.81-16.79 19.64-16.79-20-19.59 7.09-35.65 22.59-22.38-14.74-41.66 83.68-41 39.06 6.21 24-10 36.44 11.89 12.45 18.05 31.89-18.64 53.64 14.91 11.24 14.91Z"/><path fill="#cee589" d="M1060.48 730.64c-13.18.23-24.32 10.08-29.5 21.59-24.66-7-51.28 10.51-57.46 34.81-6.64-4.86-16.3-7.57-23.11-1.78-9.37-37.42-46.32-30.45-56.14 2.86C870.48 777 860.8 807.58 866 826h324.29c3.94-34.15-35.22-65-64.8-41.81-4.71-5.93-12.84-8.76-20.36-8-1.9-22.59-20.88-45.53-44.68-45.54Z"/><path fill="#a4cf7c" d="M1099 793.13c-5.42.89-1.09 9.16-.87 12.76a2.71 2.71 0 1 0 5.25-1.28c-1.69-3.31.08-10.76-4.38-11.48Zm-9.41 3.76c-3.3 0-3 4.92-3.91 7.25a2.71 2.71 0 1 0 5.23 1.37c.62-2.7 3.1-8.41-1.32-8.62Z"/><path fill="#a4cf7c" d="M996.56 785.41c-5.77 3.21-6.91 14.52-9.56 20.53a2.71 2.71 0 1 0 5.16 1.61c1.9-6.1 3.83-12.25 6.78-17.94a2.71 2.71 0 0 0-2.38-4.2ZM980 796.91c-4.33.89-3.56 8.3-4.67 11.83a2.71 2.71 0 1 0 5.37.63c-.41-3.68 4.99-11.57-.7-12.46Z"/><path fill="#a4cf7c" d="M928.43 781.59c-5.37.94-1.77 11.75-2.54 15.9a2.71 2.71 0 1 0 5.4-.19c-1.16-4 2.27-15-2.86-15.71Zm-13.49 14.93c-6.19 1.65.09 12.44.69 16.73a2.71 2.71 0 1 0 5.15-1.63c-2.26-3.46-1.84-15.36-5.84-15.1Z"/><path fill="#cee589" d="M144.74 705.24c-31.73-.62-54.2 37.48-39.15 65.22-29.79-4.52-46 31.21-33.88 55.52h345.56c-1.79-37.11-32.5-57.53-64.77-35.33.3-24.92-30.79-29.46-46.33-14.8 8.44-63-62.79-84.2-91.48-28.51-7.27-10.92-22.14-6.6-29.82 1.49-1.82-21.33-17.1-43.11-40.13-43.58Z"/><path fill="#a4cf7c" d="M215.27 794.22c-5.42.89-1.09 9.16-.87 12.76a2.71 2.71 0 1 0 5.25-1.28c-1.7-3.31.08-10.77-4.38-11.48Zm-9.41 3.78c-3.3 0-3 4.93-3.91 7.26a2.71 2.71 0 1 0 5.23 1.37c.62-2.71 3.1-8.41-1.32-8.63Z"/><path fill="#a4cf7c" d="M141.51 776.1c-5.38.95-1.78 11.76-2.55 15.9a2.71 2.71 0 1 0 5.4-.18c-1.16-4 2.28-15-2.85-15.72ZM128 791c-6.19 1.65.09 12.43.69 16.73a2.71 2.71 0 1 0 5.15-1.63c-2.24-3.42-1.84-15.33-5.84-15.1Z"/><path fill="#a4cf7c" d="M323.68 790.11c-5.78 3.22-6.91 14.53-9.56 20.54a2.71 2.71 0 1 0 5.16 1.6c1.9-6.09 3.82-12.25 6.77-17.93a2.72 2.72 0 0 0-2.37-4.21Zm-16.57 11.51c-4.34.89-3.57 8.3-4.67 11.83a2.7 2.7 0 1 0 5.36.63c-.39-3.68 5.01-11.57-.69-12.46Z"/><path fill="#e8f1f6" d="M1252.1 831.57c-3-2.87-1204.92 5.51-1204.38-2.89-3.57-2.95 1221.96-10.68 1204.38 2.89Z"/><path fill="#afbdbe" d="M977.15 413.31C846 411 846 216 977.15 213.65c131.19 2.35 131.17 197.35 0 199.66Zm0-191c-119.81 2.15-119.79 180.2 0 182.33 119.85-2.15 119.78-180.19 0-182.33Z"/><path fill="#afbdbe" d="M1023.65 368.65c-4.09 3-43.27-41-46.5-42.91l-40.38 40.37a8.67 8.67 0 0 1-12.26-12.26l40.38-40.37-40.38-40.38a8.67 8.67 0 0 1 12.26-12.26l40.38 40.38 40.37-40.38a8.67 8.67 0 0 1 12.26 12.26l-40.38 40.38 40.38 40.37c5.52 5.15 1.28 15.06-6.13 14.8Z"/><g><path fill="#fbb383" d="M247.12 584a7.22 7.22 0 0 0-7.23 7.24v251.1a7.22 7.22 0 0 0 7.23 7.24h24.27a7.22 7.22 0 0 0 7.23-7.24V591.21a7.22 7.22 0 0 0-7.23-7.24Zm767.42 0a7.22 7.22 0 0 0-7.23 7.24v251.1a7.22 7.22 0 0 0 7.23 7.24h24.28a7.22 7.22 0 0 0 7.23-7.24V591.21a7.22 7.22 0 0 0-7.23-7.24Z"/><path fill="#fc7876" d="M239.89 616.29V655h38.73v-38.71Zm767.42 0V655h38.74v-38.71Zm-767.42 94.83v38.74h38.73v-38.74Zm767.42 0v38.74h38.74v-38.74Z"/><path fill="#fbb383" d="M224.09 606.28a7.21 7.21 0 0 0-7.23 7.23v24.28a7.21 7.21 0 0 0 7.23 7.23c7.34-7 846.46 13.58 845-7.21v-24.3a7.22 7.22 0 0 0-7.23-7.23Zm0 94.84a7.21 7.21 0 0 0-7.23 7.23v24.27a7.21 7.21 0 0 0 7.23 7.23c7.34-7 846.46 13.58 845-7.21v-24.29a7.21 7.21 0 0 0-7.23-7.23Z"/><g><path fill="#f04979" d="m420.32 697.51-60.15-.59L318.05 654l.58-60.15 42.94-42.12 60.15.58 42.12 43-.58 60.15Z"/><path fill="#fff" d="M343.76 607.65c-9.25-1.07-16 8.6-10.16 15.72 2.94 3.35 12.58 3 16.24 5.5 6.64 8-12.68 10.7-12.43 2h-6.48c.31 18.31 36.1 11.11 24.64-5.68-1.95-2.47-8.15-3.35-11.59-4-16.75-3.54 4.78-14.84 6.26-3.15h6.22c.36-7.14-6.46-10.7-12.7-10.39Zm61.52 0c-20.56-.79-20.57 34.76.05 33.91 20.74.79 20.49-34.78-.05-33.91Zm-44.56.54v5.54h9.81v26.81h6.65v-26.81h9.46v-5.54Zm65.51 0v32.35h6.66V629c4.47-.22 12.38 1.17 15.4-2.93 3.44-3.41 3.69-12.07 0-15.31-3.61-4.23-17.02-2.08-22.06-2.57Zm-20.9 5.14c11.94-.22 12 22.73 0 22.55-12 .23-11.96-22.76 0-22.55Zm27.56.4c4 .21 11.88-1.46 11.41 4.89.52 6.16-7.44 4.69-11.41 4.83Z"/><g><path fill="#f04979" d="m924.36 697.51-60.15-.59L822.09 654l.59-60.15 42.94-42.12 60.15.58 42.12 43-.58 60.15Z"/><path fill="#fff" d="M847.81 607.65c-9.25-1.07-16 8.6-10.17 15.72 2.94 3.35 12.59 3 16.25 5.5 6.64 8-12.68 10.7-12.43 2H835c.3 18.31 36.1 11.11 24.63-5.68-1.94-2.47-8.14-3.35-11.58-4-16.76-3.54 4.78-14.84 6.26-3.15h6.21c.34-7.14-6.47-10.7-12.71-10.39Zm61.52 0c-20.56-.79-20.58 34.76 0 33.91 20.79.79 20.54-34.78 0-33.91Zm-44.57.54v5.54h9.81v26.81h6.66v-26.81h9.46v-5.54Zm65.52 0v32.35h6.66V629c4.47-.22 12.37 1.17 15.4-2.93 3.44-3.41 3.68-12.07-.05-15.31-3.57-4.23-16.97-2.08-22.01-2.57Zm-20.91 5.14c12-.22 12 22.73 0 22.55-11.99.23-11.95-22.76 0-22.55Zm27.57.4c4 .21 11.88-1.46 11.4 4.89.53 6.16-7.43 4.69-11.4 4.83Z"/></g></g></g><g><path fill="#22263f" d="M262.32 259.3c-4.77-2.26-1.14 46.94-2.21 48a2.21 2.21 0 0 0 2.21 2.2c4.76 2.27 1.13-46.94 2.2-48a2.21 2.21 0 0 0-2.2-2.2Zm0 45.77c-19 .11-19 28.92 0 29 18.97-.07 18.97-28.89 0-29Zm0 4.4c13.13-.22 13.13 20.45 0 20.23-13.14.22-13.14-20.45 0-20.23Zm103.75-50.17c-4.76-2.27-1.13 46.94-2.2 48a2.21 2.21 0 0 0 2.2 2.2c4.77 2.27 1.14-46.94 2.21-48a2.21 2.21 0 0 0-2.21-2.2Zm0 45.77c-19 .11-19 28.92 0 29 18.98-.07 18.98-28.89 0-29Zm0 4.4c13.14-.22 13.14 20.45 0 20.23-13.13.22-13.13-20.45 0-20.23Z"/><path fill="#afbdbe" d="M248.51 248.42a82.24 82.24 0 0 0-82.14 82.14V826h13.21V330.56a68.83 68.83 0 0 1 68.93-68.93h172.05a6.61 6.61 0 0 0 0-13.21Z"/><path fill="#f1f1f1" d="M223.88 317.7h180.63v94.76H223.88Z"/><path fill="#afbdbe" d="M223.88 315.5a2.21 2.21 0 0 0-2.2 2.2v94.76a2.21 2.21 0 0 0 2.2 2.2c2.27-2.13 183.22 4.1 182.82-2.2V317.7c.43-6.29-180.59-.08-182.82-2.2Zm2.21 4.4h176.22v90.36H226.09Z"/><g><path fill="#22263f" d="m309.08 358.88-6.83-11.74v11.74h-3.49v-17h3.59l6.73 11.55V341.9h3.5v17Z"/><path fill="#22263f" d="M317.61 356.92c-7.26-7.78 3.64-21.15 11.86-12.81 7.3 7.71-3.61 21.2-11.86 12.81Zm5.94-12.32c-6.27-.11-6.3 12 0 11.84 6.29.09 6.27-12 0-11.84Z"/><path fill="#22263f" d="M248.26 373.93V388h-3.49v-14.07h-5.15V371h13.61v2.91Z"/><path fill="#22263f" d="M265.41 385.1c1-4.9-2.9-3.72-6.12-3.83V388h-3.5v-17c1.71.16 9.94-.41 11.35.44 3.32 1.64 3.08 7.23-.54 8.35 3.84.87 1.06 5.48 3.1 7.57v.64H266a5.13 5.13 0 0 1-.54-2.91Zm.56-9c.31-3.37-4.77-1.83-6.68-2.17v4.43c2-.33 7 1.22 6.68-2.26Z"/><path fill="#22263f" d="M276.11 380.69v4.41h9.2v2.9h-12.7v-17h12.28v2.91h-8.78v3.85h8.13v2.91Z"/><path fill="#22263f" d="M300.58 376.19h-3.27c-.67-6.17-12-.08-3.28 1.66 1.81.34 5.06.8 6.08 2.1 6 8.81-12.77 12.59-12.93 3h3.4c2.19 7.37 14.25-1.18 1.68-2.4a7.28 7.28 0 0 1-3.68-1.54c-6-8.39 12-12.17 12-2.8Z"/><path fill="#22263f" d="M307.47 382v6H304v-17c2.67.27 9.66-.87 11.55 1.35 3 3 1.17 9.94-3.7 9.58Zm0-2.91c2.09-.08 6.26.7 6-2.54.25-3.33-3.87-2.46-6-2.57Z"/><path fill="#22263f" d="M329.19 384.58h-6.36l-1.14 3.42h-3.57l6-17H328l5.88 17h-3.59Zm-1-2.91L326 375l-2.21 6.64Z"/><path fill="#22263f" d="M348.46 376.19h-3.26c-.68-6.17-12-.08-3.29 1.66 1.81.34 5.06.8 6.08 2.1 6 8.81-12.77 12.59-12.93 3h3.4c2.2 7.37 14.26-1.18 1.68-2.4a7.32 7.32 0 0 1-3.68-1.54c-6-8.39 12-12.17 12-2.8Z"/><path fill="#22263f" d="M364.33 376.19h-3.27c-.67-6.17-12-.08-3.28 1.66 1.81.34 5.06.8 6.08 2.1 6 8.81-12.77 12.59-12.93 3h3.4c2.19 7.37 14.25-1.18 1.68-2.4a7.28 7.28 0 0 1-3.68-1.54c-6-8.39 12-12.17 12-2.8Z"/><path fill="#22263f" d="M371.22 371v17h-3.49v-17Z"/><path fill="#22263f" d="m385.27 388-6.82-11.75V388H375v-17h3.59l6.73 11.56V371h3.5v17Z"/><path fill="#22263f" d="M251.78 412.31c-2-5.22-9.65-2.33-8.81 3.15-.8 6 8.11 8.53 9.16 2.19h-3.87v-2.91h6.81v9.18H253l-.42-2.24c-4.39 6.31-13.8.84-13.07-6.18-1.13-9.37 14-12.68 15.59-3.19Z"/></g></g><g><path fill="#ea792f" d="m669.49 843.23-4.8 57.3a4.19 4.19 0 0 0 3.83 4.53c.14.13 104.36-.06 104.58 0a4.53 4.53 0 0 0 4.57-4.56c.14-34.13-13.43-35.65-44.91-39.67-10.79-.94-16.44-12.13-20.29-20.77Z"/><path fill="#914839" d="M716.51 848.05c-4.74 1.81-14.94 4.67-12.17 9.6a2 2 0 0 0 2.77-.3c1.37-1.73 6.14-4.21 11.26-5.75-.46-.71-1.46-2.78-1.86-3.55Zm3.3 5.5c-4.58 1.79-14.46 4.65-11.68 9.45a2 2 0 0 0 2.77-.31c1.35-1.79 7.15-4.69 12.25-6a22.1 22.1 0 0 1-3.34-3.12Zm5.35 4.48c-4.88 1.83-15.36 4.69-12.61 9.74a2 2 0 0 0 2.77-.31c1.71-2.4 10.73-6.07 15.87-6.9a21 21 0 0 1-6-2.53Z"/><path fill="#ea792f" d="M561.09 841.25c-.41.57-3.28 9.94-5.47 17.2-10.52 21-33.29 3.27-34.09 41.3a4.44 4.44 0 0 0 4.39 4.51c15.24.32 65.5 1.29 80.56.53 2.39-.13 4.09-2.6 3.95-5-.8-13.94-2.32-55.74-2.32-55.74Z"/><path fill="#914839" d="M558.8 852.25h-1.3c-.42 1.35-.82 2.67-1.22 4 5.15-.49 14.57.71 16.77 2.52a2 2 0 0 0 2.75-.43c1.55-5.94-11.78-5.89-17-6.12Zm-2.25 6.15h-.92a13.14 13.14 0 0 1-2.12 4.05c5.19-.57 15 .59 17.28 2.48a2 2 0 0 0 2.76-.42c1.53-5.92-11.79-5.88-17-6.11Zm-3 5.77h-1.48a18 18 0 0 1-8.14 4.94c5.57-1.62 20-1.33 23.87 1.58a2 2 0 0 0 2.75-.43c1.55-5.94-11.78-5.89-17-6.12Z"/><path fill="#3d395a" d="m556.19 524.94-1.25 317.61s19.19 18.23 55.11 4.1l22.08-229.42 11.32-2.82 20.86 232.79s38.2 9 56.91-5.84l-10.4-314.89Z"/><path fill="#22263f" d="M631.62 617.82c-.35-1.42 4-3.77 10.21-5.67 5.26-1.32 14.15-5.55 18.22-4.52-.38 5.47-10.89 9-16.64 10.39-6.46 1.24-11.44 1.21-11.79-.2Z"/><path fill="#fec3b3" d="M736.3 385.85 749.53 398l-30.12 37.6c-18.8-37.23-7.86 36.07-8.23 37.71 25.71-9.47 61.65-39.8 77.34-67 13-18.27-15.54-42.14-22.89-48.37Z"/><path fill="#f6ba34" d="m700.51 380.35 30.13 16 43.1-39s-47-36.67-60.1-45.44-22.8 57.21-13.13 68.44Z"/><path fill="#f6ba34" d="M542.66 315.18c29-22 80.91-29.17 122.5-23.95 14-.41 48.48 20.7 48.48 20.7V530.4S691.43 550 632.72 550s-80.6-17.63-80.6-17.63c-1.12-29.73 5.27-192.93-9.46-217.19Z"/><path fill="#ea792f" d="M633.83 289.75c-8.53 0-24.64.43-35.82 2.61-5.55 11.56-.92 17.25 14.5 25.74 16.79 9.24 56.32 3 59.55-2 4.6-7.14 1.78-22.14-10.86-24.68-8.28-.76-14.85-1.42-27.37-1.67Z"/><path fill="#f6ba34" d="m570.11 381.53-27.45-.37v-66l35.71 1.75Z"/><path fill="#ea792f" d="M543.06 380.45c-.77-2.52 37.77-4.43 37.15-1.64.86 3.91-37.77 5.81-37.15 1.64Z"/><path fill="#ea792f" d="M559.15 348.17c-.41 43.42-32.58 43.42-33 0 .43-43.41 32.59-43.41 33 0Z"/><path fill="#642435" d="M608.54 135c-13.94.58-52.5 52.31-53 52.39 0 0 5 27.37 15.81 45.64l12.52 4.32 128.87-47.41c-3.6-10-8.24-18.91-8-19.26.55-.69-79.47-35.58-96.23-35.68Z"/><path fill="#fec3b3" d="M605.11 270.6V299c8.1 14.82 51 15 59.53 10.08l3.15-22.57Z"/><path fill="#f37584" d="M614 272.85c-6.05.48-5.58 0-8.87 1.66V282c15 18.22 41.74 25.12 61 16.21l1.64-11.76Z"/><path fill="#fec3b3" d="M659.72 148.21c-20.72.11-41.3 2.83-52.46 6.72 2.62 9.07-.07 27.81-16.65 34.81 3.06 14.53 1.67 22.21-4.41 28.84-38.86-16.18-44.6 59.87 7.7 49.16 43.63 56.35 146 16.64 120.06-52 0 0 14.32-22.12 6.51-51.87-7.28-11.59-34.12-15.78-60.75-15.65Z"/><path fill="#fab3aa" d="M590.39 253.47c-6 2.87-28.11 1.64-27.19-16.29 15.39-24.51 30 1.28 27.19 16.29Z"/><path fill="#642435" d="m710 199.24-26.58-10.34c8.81-14.12 29.05-4.97 26.58 10.34Z"/><path fill="#642435" d="m612.3 199.24 30.46-9.68c-8-13.36-32.37-7.11-30.46 9.68Z"/><path fill="#642435" d="M685.62 217.33a6.94 6.94 0 0 0 13.86.87c.7-9-13.43-9.88-13.86-.87Z"/><path fill="#642435" d="M621.93 219.29c-.7 9 13.42 9.87 13.86.87.7-9-13.43-9.87-13.86-.87Z"/><path fill="#f37584" d="M590.66 254.26c.6 0 1.58-5.45 0-13.71-1.29-14.85-19.75-20.82-26.43-6.64-2 4.44-1.33 4.75 1.45.93 7.19-10.52 20-6 22.1 6.36 2 7.55 2.26 13.08 2.86 13.06Z"/><path fill="#f37584" d="M588.48 238.33c-2.7-7.6-18-.09-16.44 6.53 5.37-4.1 8.47-8.3 16.44-6.53Z"/><path fill="#f37584" d="M669.92 229.07c5.72.2 6.06 2.13 6.48 3.49 0 3.26-14.92 4-15.36 1.16-.04-1.95 4.06-4.4 8.88-4.65Z"/><path fill="#5a407d" d="M555.54 187.39c23.44-25.54 123.85-47.94 164.93-23.53 1.47-63.49-47.25-77.49-101.1-64.61-22 6.67-42.5 13-51.76 29.88s-22.79 34.53-12.07 58.26Z"/><path fill="#22263f" d="M604.21 165c29.76 21.76 49.42 3.43 87.07 3.47 19.36.23 40.31 12.28 49.49 14.88 18.32-2.9-24-30-22.17-27.4 0 0-44.13-28.81-113.8 2.38-3.37 1.51-3.72 4.71-.59 6.67Z"/><path fill="#fec3b3" d="M532.46 205.17c-2.59 0-5.3 2.1-7.89 5.86-1.11-6.79-8.24-4.54-12.87 7.76-16-3.1-21.35 61.73-8.75 70.27-1.29 16.31 3.13 49.3 11.11 59 7.24 9.2 42.07 9 44.47 8.93 1.45-13.61.66-38.33-15.87-41.83l-9.93-20.52s11.54-4.44 17.54-14c9.25-16.48 7.31-50.8-6.92-23.35-1.39.84 16.79-66.64-4.18-46.57-1.98-3.81-4.29-5.58-6.71-5.55Z"/><path fill="#fec3b3" d="M725.39 464.91c-3.83 7.65-17.53 11.75-22 11.83s-9.15-4.77-9.15-4.77c-9.51.59-5.61-8.75-5.61-8.75-5.8-4.68-2.06-8.14 1-10-4.82-5.42-3.58-8.07 4.32-8.76s19.28-4.08 22-6c4.61.39 9.39 26.48 9.39 26.48Z"/><path fill="#ea792f" d="M711 357.81c3.28-.87 5.56 29.63 2.18 29.25-3.3.87-5.57-29.62-2.18-29.25Z"/><path fill="#f37584" d="M542.48 315.26c3.9.37 9.91 17.21 4.6 19.06-.86-2.27-.29-5.78-1.83-9.15-1.79-5.17-3.8-9.37-2.77-9.91Z"/><path fill="#f37584" d="M539.25 211.15c1.1-.56-2.92 12.74-4.63 20.78-4.3 20.45-7.16 19.91-3.18-.71 1.27-8.28 7.16-21.42 7.81-20.07Z"/><path fill="#f37584" d="M523.87 210.43c1-.68-1.53 11.71-2.93 19-2.87 19.09-5.77 18.52-3.21-.56.89-7.62 5.41-19.59 6.14-18.44Z"/><path fill="#f37584" d="M512.29 218.45c1.57-.35-4.65 29.62-5.8 28.77-3.06.26 3.28-30.05 5.8-28.77Z"/><path fill="#f37584" d="M536.86 260.79c.45.74-14.08.21-20.26 4.15-4.58 1.88-7.78 6.91-9.77 8.79-.42-.29-.05-7.05 8.26-11.62 6.68-4.78 22.8-3.01 21.77-1.32Z"/><path fill="#f37584" d="M713.15 467.22c.73 2.25-17.65 6.67-18.07 4.64-.54-.47 18.33-5 18.07-4.64Z"/><path fill="#f37584" d="M709.76 458.47c.88 2.08-20 6.63-20.08 4.67-.54-.56 20.28-5.16 20.08-4.67Z"/><path fill="#f37584" d="M708.89 449.33c.4 2.55-17.93 5.68-18.47 3.51-.51-.29 18.71-3.71 18.47-3.51Z"/><path fill="#f37584" d="M718.08 437.36c-.4 4.11-21.8 7.81-6.16 1.91 3.2-1.27 5.87-2.4 6.16-1.91Z"/><path fill="#f37584" d="M719.13 436.25c2.41-.07 7.52 16.17 4.84 17.42-.55-.05-.7-3.92-2.26-8.59s-3.08-8.59-2.58-8.83Z"/><path fill="#f37584" d="M764.08 383.74c.69 0-17.08 18.2-17.17 17.4-1.99-1.98 15.09-19.47 17.17-17.4Z"/><path fill="#22263f" d="M623.83 339.2c-24.23-2.63-36.82-24.17-27.75-47 1.24-3.54 6.74-1.57 5.44 1.94-6.77 18.52-.23 32.86 18.45 38.75 29.31 1.51 58.93-35.92 64.14-68.08.29-3.08 5-3.37 5.67-.33 0 .15 3.81 15.3 6.39 31 4.86 29.61 1.62 36.13-1.76 38.5-12.57 6.41-18.48-18-22-27.81-12.69 16.42-30.02 32.02-48.58 33.03Zm52.78-39.2c18.45 59.12 19.79 16.14 10.39-21.8a92.32 92.32 0 0 1-10.39 21.8Z"/><path fill="#249ecf" d="M664.55 248.05c-5.67-.08-5.67 8.82 0 8.74H670c-1.88 14.22 20.12 15.82 20.32 1.48.09-13.33-17.32-9.85-25.77-10.22Z"/></g></svg>